# xmcd CD database file
#
# Track frame offsets:
#	183
#	13188
#	23250
#	33210
#	53988
#	68970
#	84875
#	102498
#	119378
#	131013
#	143093
#	157250
#	169125
#	184118
#	201580
#	217208
#
# Disc length: 3112 seconds
#
# Revision: 1
# Processed by: cddbd v1.4PL0 Copyright (c) Steve Scherf et al.
# Submitted via: CDex 1.50Beta7
#
DISCID=e80c2610
DTITLE=Rangers - Druha miza
DYEAR=1992
DGENRE=Country
TTITLE0=Plujem dal
TTITLE1=Neotalej
TTITLE2=Zmackni ten dzubox
TTITLE3=Jizni Cechy
TTITLE4=Zas bude pani vsecho O.K.
TTITLE5=Zatceni
TTITLE6=V dalce hrajou blues
TTITLE7=Ruze ze San Antonia
TTITLE8=Na start
TTITLE9=Slunovlaska
TTITLE10=Jsi mym osudem
TTITLE11=Buldok
TTITLE12=Nepoustej padlo
TTITLE13=Novodoby robinson
TTITLE14=Zejtra budes tasenej
TTITLE15=Svita
EXTD=YEAR: 1992
EXTT0=
EXTT1=
EXTT2=
EXTT3=
EXTT4=
EXTT5=
EXTT6=
EXTT7=
EXTT8=
EXTT9=
EXTT10=
EXTT11=
EXTT12=
EXTT13=
EXTT14=
EXTT15=
PLAYORDER=
